# xmcd
#
# Track frame offsets:
#	150
#	16617
#	28667
#	44672
#	63105
#	79532
#	91577
#	107552
#
# Disc length: 1679 seconds
#
# Revision: 1
# Processed by: cddbd v1.5.2PL0 Copyright (c) Steve Scherf et al.
# Submitted via: audiograbber 1.83.01
#
DISCID=4d068d08
DTITLE=The Singing Machine - Country Guys
DYEAR=2001
DGENRE=Country
TTITLE0=Tim McGraw - My Next Thirty Years
TTITLE1=Alan Jackson - www.memory
TTITLE2=Lonestar - Tell Her
TTITLE3=Keith Urban - But for the Grace of God
TTITLE4=Tim McGraw - My Next Thirty Years
TTITLE5=Alan Jackson - www.memory
TTITLE6=Lonestar - Tell Her
TTITLE7=Keith Urban - But for the Grace of God
EXTD=
EXTT0=
EXTT1=
EXTT2=
EXTT3=
EXTT4=
EXTT5=
EXTT6=
EXTT7=
PLAYORDER=
